# xmcd
#
# Track frame offsets: 
#        150
#        10132
#        27352
#        34547
#        44895
#        52845
#        61582
#        70687
#        85522
#        94392
#        104522
#        111429
#        127955
#        138237
#
# Disc length: 2043 seconds
#
# Revision: 2
# Processed by: cddbd v1.5.2PL0 Copyright (c) Steve Scherf et al.
# Submitted via: ExactAudioCopy v1.0b3
#
DISCID=b307f90e
DTITLE=Dick Rivers - The Rock Machine
DYEAR=1997
DGENRE=Rock and Roll
TTITLE0=Hold On
TTITLE1=When The Plane
TTITLE2=Baby I Don't Care
TTITLE3=That's All Right Mama
TTITLE4=Blueberry Hill
TTITLE5=Twenty Flight Rock
TTITLE6=It's Been Nice
TTITLE7=Fever
TTITLE8=Party
TTITLE9=One Night
TTITLE10=Great Balls Of Fire
TTITLE11=All I Have To Is Dream and Donna
TTITLE12=Slippin' And Slidin'
TTITLE13=I Got A Woman
EXTD=
EXTT0=
EXTT1=
EXTT2=
EXTT3=
EXTT4=
EXTT5=
EXTT6=
EXTT7=
EXTT8=
EXTT9=
EXTT10=
EXTT11=
EXTT12=
EXTT13=
PLAYORDER=
